<svg xmlns="http://www.w3.org/2000/svg" width="111" height="22" viewBox="0 0 111 22">
    <g fill="none" fill-rule="evenodd">
        <path fill="#2717C9" fill-rule="nonzero" d="M33.455 18V3.684H44.07v2.421h-7.724V9.28h7.187v2.412h-7.187v3.897h7.998V18H33.455zm20.098 3.945V16.73a3.891 3.891 0 0 1-1.338 1.1c-.534.27-1.11.404-1.729.404-1.178 0-2.148-.442-2.91-1.328-.898-1.035-1.347-2.438-1.347-4.209 0-1.666.421-2.967 1.264-3.901.843-.934 1.89-1.401 3.14-1.401.69 0 1.287.146 1.792.439.504.293.952.736 1.343 1.328V7.63h2.529v14.316h-2.744zm.088-9.258c0-1.06-.217-1.85-.65-2.368-.433-.517-.975-.776-1.626-.776-.664 0-1.219.264-1.665.791-.446.527-.669 1.364-.669 2.51 0 1.14.215 1.961.645 2.466.43.504.96.756 1.592.756.631 0 1.184-.283 1.66-.85.475-.566.713-1.409.713-2.528zM65.818 18v-1.553c-.377.554-.874.99-1.489 1.309a4.175 4.175 0 0 1-1.948.478c-.697 0-1.322-.153-1.875-.459a2.71 2.71 0 0 1-1.201-1.289c-.248-.553-.371-1.318-.371-2.295V7.63h2.744v4.766c0 1.458.05 2.351.151 2.68.101.329.285.59.552.781.267.193.605.289 1.015.289a2.16 2.16 0 0 0 1.26-.386c.371-.257.625-.576.762-.957s.205-1.314.205-2.798V7.629h2.744V18h-2.549zM71.21 6.223v-2.54h2.744v2.54H71.21zm0 11.777V7.629h2.744V18H71.21zm14.99 0h-2.744v-5.293c0-1.12-.059-1.844-.176-2.173a1.524 1.524 0 0 0-.571-.766c-.264-.183-.581-.274-.952-.274a2.2 2.2 0 0 0-1.28.39c-.377.261-.636.606-.776 1.036-.14.43-.21 1.224-.21 2.383V18h-2.744V7.629h2.549v1.523c.905-1.172 2.044-1.757 3.418-1.757.605 0 1.159.109 1.66.327.501.218.88.496 1.138.835.257.338.436.722.537 1.152.1.43.151 1.045.151 1.846V18zm2.149-5.332c0-.911.224-1.794.673-2.647a4.625 4.625 0 0 1 1.91-1.953c.823-.449 1.743-.673 2.758-.673 1.57 0 2.855.509 3.858 1.528 1.002 1.019 1.504 2.306 1.504 3.862 0 1.57-.506 2.87-1.519 3.902-1.012 1.031-2.287 1.547-3.823 1.547-.95 0-1.857-.214-2.72-.644a4.421 4.421 0 0 1-1.968-1.89c-.449-.83-.673-1.84-.673-3.032zm2.812.146c0 1.03.244 1.817.733 2.364.488.547 1.09.82 1.806.82s1.317-.273 1.802-.82c.485-.547.728-1.341.728-2.383 0-1.016-.243-1.797-.728-2.344-.485-.547-1.086-.82-1.802-.82s-1.318.273-1.806.82c-.489.547-.733 1.335-.733 2.363zM99.88 18l3.741-5.342-3.584-5.03h3.35l1.836 2.852 1.933-2.851h3.223l-3.516 4.912L110.701 18h-3.369l-2.11-3.213L103.095 18H99.88z"/>
        <g>
            <circle cx="11" cy="11" r="11" fill="#08D0DE"/>
            <path fill="#FFF" d="M16 5.833L11.486 10.5l4.394 4.78A6.455 6.455 0 0 1 11.486 17C7.904 17 5 14.09 5 10.5S7.904 4 11.486 4c1.754 0 3.346.698 4.514 1.833z"/>
        </g>
    </g>
</svg>
